<?xml version="1.0" standalone="no"?>
<!DOCTYPE svg PUBLIC "-//W3C//DTD SVG 20010904//EN"
 "http://www.w3.org/TR/2001/REC-SVG-20010904/DTD/svg10.dtd">
<svg version="1.0" xmlns="http://www.w3.org/2000/svg"
 width="916.000000pt" height="916.000000pt" viewBox="0 0 916.000000 916.000000"
 preserveAspectRatio="xMidYMid meet">

<g transform="translate(0.000000,916.000000) scale(0.100000,-0.100000)"
fill="#000000" stroke="none">
<path d="M0 4580 l0 -4580 4580 0 4580 0 0 4580 0 4580 -4580 0 -4580 0 0
-4580z m4695 4295 c223 -46 437 -242 620 -565 l56 -97 57 -6 c177 -15 317
-190 298 -370 -7 -70 -40 -148 -84 -198 l-31 -36 30 -99 c76 -251 157 -615
209 -929 17 -104 33 -200 36 -213 4 -19 -16 -10 -133 62 -77 47 -143 95 -150
108 -6 12 -29 113 -49 223 -37 203 -109 506 -159 671 l-27 90 -69 18 c-157 40
-258 170 -259 332 0 82 16 135 61 200 l31 45 -47 82 c-115 199 -242 340 -360
398 -61 30 -79 34 -145 34 -107 0 -187 -40 -296 -149 -307 -309 -570 -1027
-729 -1996 -13 -83 -27 -155 -30 -159 -2 -5 -48 -33 -100 -62 -80 -44 -104
-63 -142 -113 l-45 -61 6 45 c86 634 178 1074 313 1493 207 642 464 1049 758
1197 130 66 247 83 380 55z m2995 -1820 c97 -8 195 -28 295 -61 221 -72 379
-234 425 -434 22 -92 16 -231 -14 -350 -36 -141 -115 -323 -191 -440 -12 -19
-40 -62 -61 -95 -38 -59 -194 -270 -230 -311 -11 -12 -30 -35 -44 -52 -136
-164 -444 -472 -669 -668 -25 -22 -52 -46 -61 -54 -8 -8 -40 -35 -70 -60 -30
-24 -62 -51 -72 -60 -9 -8 -28 -24 -42 -35 -14 -11 -37 -30 -51 -42 -13 -12
-42 -34 -62 -50 -21 -15 -40 -30 -43 -33 -8 -8 -119 -94 -150 -115 -15 -11
-63 -47 -106 -80 -81 -62 -85 -65 -175 -127 -30 -21 -75 -53 -101 -70 -148
-104 -279 -190 -283 -186 -2 2 3 78 12 167 l17 163 41 27 c35 22 63 43 147
104 9 6 42 30 73 52 159 113 580 442 641 500 6 5 37 33 69 60 344 294 730 701
885 935 8 12 26 39 40 59 56 79 134 218 174 310 54 125 79 233 73 321 -7 96
-10 110 -40 156 -58 90 -138 140 -293 180 -88 24 -120 27 -299 30 -197 2 -405
-15 -550 -46 -38 -9 -68 -14 -137 -25 -18 -3 -46 -10 -63 -15 -16 -5 -44 -12
-62 -15 -46 -8 -324 -82 -418 -112 -44 -14 -139 -45 -212 -69 -72 -24 -136
-44 -141 -44 -4 0 -19 57 -32 126 -27 140 -28 135 45 154 22 6 49 15 60 20 18
7 164 55 205 66 8 2 105 29 215 59 184 51 476 115 585 129 25 4 74 11 110 16
36 5 121 13 190 16 69 4 126 8 128 9 4 3 160 -3 242 -10z m-5730 -8 c14 -3 48
-8 75 -12 28 -3 66 -9 85 -11 32 -5 162 -27 220 -39 14 -3 41 -8 60 -11 19 -3
58 -12 85 -20 28 -7 64 -16 80 -19 31 -5 219 -56 365 -98 114 -34 289 -93 297
-101 7 -7 -23 -241 -32 -256 -3 -5 -26 0 -50 10 -25 11 -45 17 -45 15 0 -2
-17 3 -37 12 -21 8 -66 24 -101 34 -34 10 -93 28 -130 39 -62 19 -91 27 -117
34 -5 1 -26 7 -45 14 -19 6 -46 13 -60 16 -37 7 -59 12 -125 29 -33 9 -72 18
-88 21 -15 3 -35 7 -45 10 -9 3 -28 7 -42 10 -14 2 -63 11 -110 19 -81 15
-121 21 -207 31 -21 3 -60 8 -88 11 -27 3 -108 7 -180 9 -219 6 -389 -20 -510
-77 -93 -45 -137 -85 -174 -159 -29 -58 -31 -65 -27 -167 2 -76 10 -125 25
-171 35 -101 126 -285 188 -379 52 -78 198 -279 212 -291 3 -3 31 -34 61 -70
30 -36 66 -78 80 -95 33 -39 382 -388 445 -446 28 -25 99 -88 160 -140 60 -51
115 -98 121 -104 24 -20 266 -215 299 -240 122 -93 184 -139 204 -153 217
-156 211 -151 211 -186 0 -52 -22 -251 -29 -258 -4 -4 -31 10 -61 32 -30 22
-70 50 -88 62 -18 13 -66 48 -107 78 -41 30 -109 80 -150 110 -87 63 -68 48
-290 226 -93 75 -183 148 -200 162 -16 15 -45 39 -63 54 -193 156 -609 569
-747 743 -22 27 -46 56 -53 64 -7 8 -47 58 -87 111 -253 335 -391 637 -397
877 -4 134 6 189 53 300 21 50 106 153 162 197 102 81 270 144 457 171 81 12
481 13 540 2z m1883 -547 c5 -4 -35 -31 -88 -60 -53 -29 -98 -50 -99 -49 -6 7
15 142 25 160 9 17 14 16 82 -12 39 -17 76 -35 80 -39z m1828 -367 c133 -82
244 -154 247 -162 3 -7 -57 -605 -134 -1327 l-138 -1313 -282 -153 -281 -152
59 -126 c251 -530 358 -758 358 -764 0 -3 -116 -5 -257 -4 l-257 3 -201 440
-201 440 -423 3 -423 2 -254 157 -254 156 5 36 c3 20 66 614 141 1321 74 706
136 1285 137 1286 1 1 126 70 277 152 l275 151 683 0 682 1 241 -147z m-2524
-845 c-3 -24 -11 -98 -18 -165 l-12 -122 -43 -33 c-24 -18 -67 -49 -94 -68
-28 -19 -72 -51 -99 -70 -27 -19 -59 -43 -72 -52 -51 -36 -185 -139 -207 -158
-13 -11 -30 -20 -37 -20 -8 0 -37 26 -65 58 -28 31 -66 68 -85 82 -19 14 -35
30 -35 36 0 5 18 23 40 40 22 16 51 38 64 49 14 11 59 45 100 75 42 30 110 80
151 110 41 30 91 66 111 80 19 14 55 39 78 56 23 17 62 43 86 58 25 15 63 40
85 56 22 16 44 29 49 30 5 0 6 -19 3 -42z m3038 -68 c17 -11 53 -36 80 -55 28
-19 74 -52 104 -73 90 -62 94 -65 175 -127 43 -33 91 -69 106 -80 51 -35 145
-110 152 -120 4 -5 -3 -20 -15 -33 -24 -25 -178 -132 -191 -132 -5 0 -20 10
-35 23 -15 12 -40 31 -55 42 -15 11 -61 45 -101 75 -41 30 -99 73 -131 95 -31
22 -62 45 -68 50 -6 6 -30 22 -53 38 -24 15 -43 33 -43 40 0 6 7 71 15 142 8
72 15 131 15 133 0 7 18 0 45 -18z m986 -757 c19 -16 41 -35 49 -43 9 -8 61
-55 115 -105 190 -173 418 -408 569 -586 41 -49 197 -257 227 -304 107 -164
146 -235 202 -365 79 -187 110 -399 77 -540 -46 -200 -204 -362 -425 -434
-145 -47 -269 -66 -463 -70 l-93 -2 -29 -50 c-153 -268 -557 -208 -634 95
l-12 43 -169 43 c-94 24 -210 55 -260 69 -49 15 -97 28 -105 30 -46 12 -188
59 -202 67 -10 5 -22 9 -27 9 -5 0 -21 4 -35 10 l-25 9 23 68 c31 93 38 136
26 167 -5 14 -7 26 -3 26 4 0 59 -18 122 -39 224 -75 517 -160 614 -176 18 -4
51 -11 74 -17 41 -10 44 -9 84 26 77 66 121 81 234 81 89 0 106 -3 150 -27 57
-30 106 -75 144 -132 l26 -39 150 6 c284 11 457 78 542 211 30 46 33 60 40
156 4 59 0 94 -17 160 -32 117 -94 258 -165 370 -27 43 -97 151 -107 165 -164
222 -306 383 -543 615 -150 147 -188 183 -260 245 -32 28 -75 66 -97 85 l-39
35 62 55 c34 30 76 67 92 83 16 15 36 27 43 27 7 0 27 -12 45 -27z m-5069 -71
c53 -40 99 -76 102 -81 4 -5 -9 -21 -26 -36 -102 -85 -225 -201 -405 -381
l-201 -203 20 -63 c52 -165 -29 -342 -191 -416 -44 -21 -72 -26 -134 -26 l-77
-1 -48 -90 c-94 -180 -130 -297 -130 -424 0 -81 3 -97 29 -150 37 -73 81 -114
174 -158 121 -57 291 -83 510 -77 72 2 153 6 180 9 28 3 66 8 85 10 80 9 130
17 210 32 47 8 96 17 110 19 14 3 33 7 42 10 10 3 30 7 45 10 16 3 55 12 88
21 66 17 88 22 125 29 14 3 41 10 60 16 19 7 41 13 48 15 6 2 18 4 25 6 6 2
28 8 47 14 19 6 76 23 125 38 50 15 108 34 130 42 22 8 47 16 55 18 8 2 53 18
100 35 47 18 96 35 110 40 50 17 186 68 235 90 45 19 54 20 95 9 27 -8 145
-15 295 -19 150 -3 242 -9 230 -14 -11 -4 -45 -20 -75 -33 -30 -14 -68 -31
-85 -38 -16 -7 -50 -22 -75 -33 -25 -10 -92 -38 -150 -62 -58 -23 -118 -48
-135 -56 -52 -22 -144 -56 -150 -55 -3 1 -18 -5 -33 -13 -15 -8 -67 -28 -117
-45 -49 -16 -128 -44 -175 -60 -162 -57 -525 -163 -605 -176 -16 -3 -52 -12
-80 -19 -27 -8 -66 -17 -85 -20 -19 -3 -46 -8 -60 -11 -58 -12 -188 -34 -220
-39 -19 -2 -57 -8 -85 -11 -27 -4 -61 -9 -75 -11 -64 -13 -450 -12 -535 0
-192 28 -359 90 -462 172 -56 44 -141 147 -162 197 -47 111 -57 166 -53 300 4
152 62 333 170 531 l54 100 -24 50 c-19 41 -23 66 -23 145 0 82 4 103 25 146
31 64 101 134 165 165 44 22 64 25 158 25 l109 1 29 34 c104 121 575 574 589
567 3 -1 49 -35 102 -75z m3838 -1215 c0 -105 -130 -950 -150 -970 -4 -5 -11
4 -14 20 -4 15 -44 106 -89 201 l-81 174 23 166 c12 92 25 184 28 205 5 34 11
40 75 74 38 20 92 60 121 89 50 51 87 68 87 41z m-2561 -278 c72 -44 129 -85
126 -89 -3 -4 -28 -11 -57 -15 -28 -4 -80 -15 -115 -25 -34 -10 -63 -15 -63
-10 0 11 -19 157 -25 193 -2 15 -3 27 -1 27 2 0 63 -36 135 -81z m240 -641
c181 -916 500 -1604 816 -1759 61 -30 79 -34 145 -34 66 0 84 4 145 34 178 88
368 357 524 743 57 141 136 378 171 511 l23 87 52 0 c74 0 137 25 196 78 36
32 50 40 46 27 -3 -11 -24 -90 -46 -175 -142 -553 -355 -1026 -575 -1280 -159
-183 -356 -290 -536 -290 -130 0 -294 67 -412 168 -285 243 -534 750 -712
1449 -46 179 -109 464 -104 468 25 17 200 85 219 85 25 0 27 -3 48 -112z"/>
<path d="M3960 5846 c0 -7 -16 -161 -35 -342 -19 -180 -33 -329 -31 -331 2 -2
40 -6 85 -10 l81 -6 0 -305 0 -305 40 -37 c32 -30 40 -44 40 -73 0 -53 -19
-86 -64 -109 -35 -18 -43 -19 -79 -7 -48 16 -77 58 -77 113 0 33 6 45 40 76
l40 37 -2 279 -3 279 -57 1 c-48 1 -58 -1 -58 -15 0 -10 -29 -294 -65 -633
l-65 -615 35 -37 c60 -64 48 -117 -43 -188 -13 -11 -22 -29 -22 -45 0 -16 -3
-52 -6 -80 l-7 -53 147 0 146 0 0 168 0 167 -36 30 c-66 55 -55 153 21 189 44
21 80 15 120 -20 27 -23 30 -32 30 -81 0 -51 -2 -57 -38 -87 l-37 -31 0 -167
0 -168 49 0 c47 0 49 1 55 33 8 43 63 87 110 87 29 0 44 -8 76 -40 l40 -40
290 0 290 0 0 254 0 254 -155 4 c-125 2 -158 6 -165 18 -6 8 -10 134 -10 289
l0 275 -35 32 c-30 28 -35 38 -35 79 0 25 5 55 10 66 15 27 62 49 105 49 94 0
133 -130 60 -196 l-35 -31 0 -262 0 -261 154 0 c131 0 155 -2 160 -16 3 -9 6
-146 6 -305 l0 -289 80 0 c57 0 80 4 80 13 0 6 11 111 24 232 22 195 23 221 9
229 -8 4 -29 20 -46 36 -26 23 -30 34 -30 74 0 42 4 52 36 83 l37 34 0 293 0
293 -25 13 c-60 32 -68 129 -13 175 35 29 101 34 136 9 18 -12 23 -13 26 -2 4
14 97 903 96 926 0 9 -145 12 -690 12 l-690 0 2 -172 3 -173 155 -5 155 -5 3
-287 2 -288 23 -4 c12 -3 69 -4 127 -3 l105 2 5 152 c3 84 10 157 15 162 6 6
77 12 165 13 150 3 155 4 165 25 5 13 25 30 44 39 113 54 212 -77 130 -171
-27 -31 -37 -35 -79 -35 -44 0 -52 4 -83 40 l-34 41 -124 -3 -124 -3 -3 -149
c-1 -90 -7 -155 -14 -163 -15 -19 -351 -19 -367 0 -7 9 -12 107 -13 293 l-3
279 -150 3 c-104 2 -152 6 -157 15 -4 7 -8 99 -8 205 0 185 -1 192 -20 192
-11 0 -20 -6 -20 -14z m401 -56 l25 -30 290 0 289 0 32 35 c29 31 38 35 82 35
42 0 55 -5 76 -27 31 -34 39 -62 31 -106 -17 -90 -142 -113 -197 -36 l-20 29
-292 0 -292 0 -27 -34 c-44 -55 -110 -57 -168 -6 -21 18 -25 31 -25 75 0 47 4
57 29 79 52 44 123 38 167 -14z m67 -983 c53 -48 45 -132 -17 -176 l-31 -22 0
-355 0 -354 153 0 c106 0 157 -4 165 -12 7 -7 12 -41 12 -83 0 -68 1 -71 35
-98 32 -26 35 -32 35 -83 0 -50 -4 -59 -31 -85 -48 -44 -119 -38 -161 15 -26
32 -24 113 4 143 12 13 27 23 35 23 9 0 13 17 13 60 l0 59 -157 3 -158 3 -3
381 -2 381 -40 42 c-29 30 -40 50 -40 72 0 96 117 150 188 86z"/>
<path d="M4230 5746 c-16 -31 -8 -53 25 -68 21 -9 28 -8 45 7 22 20 26 55 8
73 -21 21 -63 14 -78 -12z"/>
<path d="M5041 5748 c-11 -29 -4 -51 20 -66 38 -24 88 38 59 73 -20 24 -69 19
-79 -7z"/>
<path d="M4328 4768 c-25 -21 -28 -45 -9 -69 24 -30 68 -20 77 18 5 20 2 31
-16 45 -26 21 -31 22 -52 6z"/>
<path d="M4646 3654 c-39 -39 -1 -93 52 -73 16 6 22 16 22 37 0 49 -42 69 -74
36z"/>
<path d="M5049 5249 c-14 -14 -18 -27 -13 -42 12 -39 50 -49 78 -21 22 22 20
50 -6 68 -29 21 -34 20 -59 -5z"/>
<path d="M5220 4860 c-17 -17 -18 -24 -8 -45 19 -42 88 -31 88 14 0 51 -43 68
-80 31z"/>
<path d="M4658 4733 c-35 -9 -34 -76 0 -85 10 -3 28 -1 40 3 29 11 31 64 3 79
-11 5 -21 9 -23 9 -2 -1 -11 -3 -20 -6z"/>
<path d="M5303 4733 c-10 -4 -13 -41 -12 -146 l2 -142 13 115 c16 132 15 179
-3 173z"/>
<path d="M4000 4460 c-23 -23 -25 -38 -6 -62 27 -36 85 -12 86 34 0 16 -35 48
-52 48 -5 0 -17 -9 -28 -20z"/>
<path d="M5222 4058 c-22 -22 -8 -78 20 -78 4 0 8 20 8 45 0 46 -7 54 -28 33z"/>
<path d="M3996 3924 c-20 -19 -20 -41 -2 -60 18 -17 58 -18 74 -2 26 26 1 78
-38 78 -10 0 -26 -7 -34 -16z"/>
<path d="M3741 3730 c0 -29 1 -32 10 -17 7 11 7 23 0 35 -9 14 -10 11 -10 -18z"/>
<path d="M4242 3484 c-39 -27 -28 -44 28 -44 54 0 65 14 32 43 -23 21 -32 21
-60 1z"/>
</g>
</svg>
