<?xml version="1.0" standalone="no"?>
<!DOCTYPE svg PUBLIC "-//W3C//DTD SVG 20010904//EN"
 "http://www.w3.org/TR/2001/REC-SVG-20010904/DTD/svg10.dtd">
<svg version="1.0" xmlns="http://www.w3.org/2000/svg"
 width="244.000000pt" height="244.000000pt" viewBox="0 0 244.000000 244.000000"
 preserveAspectRatio="xMidYMid meet">
<metadata>
Created by potrace 1.14, written by Peter Selinger 2001-2017
</metadata>
<g transform="translate(0.000000,244.000000) scale(0.100000,-0.100000)"
fill="#000000" stroke="none">
<path d="M0 1220 l0 -1220 740 0 c487 0 740 3 740 10 0 6 27 10 60 10 33 0 60
-4 60 -10 0 -7 147 -10 420 -10 l420 0 0 1220 0 1220 -1220 0 -1220 0 0 -1220z
m1340 390 c0 -6 -110 -10 -310 -10 -200 0 -310 4 -310 10 0 6 110 10 310 10
200 0 310 -4 310 -10z m260 0 c0 -6 -40 -10 -100 -10 -60 0 -100 4 -100 10 0
6 40 10 100 10 60 0 100 -4 100 -10z m60 0 c0 -5 -9 -10 -20 -10 -11 0 -20 5
-20 10 0 6 9 10 20 10 11 0 20 -4 20 -10z m-1000 -20 c0 -5 -13 -10 -30 -10
-16 0 -30 5 -30 10 0 6 14 10 30 10 17 0 30 -4 30 -10z m-80 -16 c0 -10 -28
-34 -40 -34 -16 0 -40 -26 -40 -42 0 -8 -9 -20 -20 -28 -19 -13 -20 -26 -20
-192 0 -112 4 -178 10 -178 6 0 10 -11 10 -25 0 -29 59 -95 85 -95 8 0 15 -4
15 -10 0 -5 9 -10 20 -10 11 0 20 -4 20 -10 0 -5 -9 -10 -20 -10 -11 0 -20 5
-20 10 0 6 -7 10 -15 10 -9 0 -40 25 -70 55 -46 45 -55 60 -55 90 0 19 -4 35
-10 35 -5 0 -10 9 -10 20 0 11 -4 20 -10 20 -6 0 -10 37 -10 90 0 53 4 90 10
90 6 0 10 9 10 20 0 11 5 20 10 20 6 0 10 14 10 30 0 17 5 30 10 30 6 0 10 7
10 15 0 20 65 85 85 85 8 0 15 5 15 10 0 6 5 10 10 10 6 0 10 -3 10 -6z m706
-28 c8 -8 14 -17 14 -20 0 -3 -40 -6 -90 -6 -83 0 -90 1 -90 20 0 18 7 20 76
20 52 0 80 -4 90 -14z m574 4 c0 -5 -4 -10 -10 -10 -5 0 -10 5 -10 10 0 6 5
10 10 10 6 0 10 -4 10 -10z m55 -35 c14 -13 25 -31 25 -40 0 -8 5 -15 10 -15
6 0 10 -18 10 -40 0 -22 5 -40 10 -40 6 0 10 -43 10 -110 0 -67 -4 -110 -10
-110 -5 0 -10 -18 -10 -40 0 -22 -4 -40 -10 -40 -5 0 -10 -9 -10 -20 0 -11 -4
-20 -10 -20 -5 0 -10 9 -10 20 0 11 5 20 10 20 6 0 10 67 10 180 0 113 -4 180
-10 180 -5 0 -10 8 -10 18 0 10 -9 24 -20 32 -11 8 -20 22 -20 32 0 24 6 23
35 -7z m-15 -505 c0 -5 -4 -10 -10 -10 -5 0 -10 5 -10 10 0 6 5 10 10 10 6 0
10 -4 10 -10z m-60 -40 c0 -5 -4 -10 -10 -10 -5 0 -10 5 -10 10 0 6 5 10 10
10 6 0 10 -4 10 -10z m-780 -40 c0 -6 -77 -10 -210 -10 -133 0 -210 4 -210 10
0 6 77 10 210 10 133 0 210 -4 210 -10z m700 0 c0 -6 -77 -10 -210 -10 -133 0
-210 4 -210 10 0 6 77 10 210 10 133 0 210 -4 210 -10z m-560 -80 c0 -5 -4
-10 -10 -10 -5 0 -10 5 -10 10 0 6 5 10 10 10 6 0 10 -4 10 -10z m-180 -20 c0
-5 12 -10 26 -10 16 0 37 -12 54 -30 15 -16 35 -30 44 -30 9 0 16 -4 16 -10 0
-5 18 -10 40 -10 22 0 40 5 40 10 0 6 7 10 16 10 9 0 29 14 44 30 21 23 37 30
64 30 20 0 36 5 36 10 0 6 49 10 126 10 104 0 128 -3 142 -17 12 -12 13 -18 4
-21 -6 -2 -12 -17 -12 -33 0 -16 -4 -29 -10 -29 -5 0 -10 -13 -10 -30 0 -16
-4 -30 -10 -30 -5 0 -10 -9 -10 -20 0 -11 -4 -20 -10 -20 -5 0 -10 -13 -10
-30 0 -16 -4 -30 -10 -30 -5 0 -10 -8 -10 -18 0 -10 -9 -24 -20 -32 -11 -8
-20 -22 -20 -32 0 -10 -4 -18 -10 -18 -5 0 -10 -7 -10 -16 0 -9 -13 -29 -30
-44 -16 -15 -30 -33 -30 -40 0 -15 -25 -40 -40 -40 -7 0 -25 -13 -40 -30 -15
-16 -35 -30 -44 -30 -9 0 -16 -4 -16 -10 0 -5 -13 -10 -30 -10 -16 0 -30 -4
-30 -10 0 -6 -27 -10 -60 -10 -33 0 -60 4 -60 10 0 6 -13 10 -30 10 -16 0 -30
5 -30 10 0 6 -8 10 -18 10 -10 0 -24 9 -32 20 -8 11 -20 20 -27 20 -7 0 -56
43 -108 95 -52 52 -95 101 -95 108 0 7 -9 19 -20 27 -12 8 -20 26 -20 42 0 15
-4 28 -10 28 -5 0 -10 9 -10 20 0 11 -4 20 -10 20 -5 0 -10 14 -10 30 0 17 -4
30 -10 30 -5 0 -10 9 -10 20 0 11 -4 20 -10 20 -5 0 -10 18 -10 40 l0 40 170
0 c107 0 170 -4 170 -10z"/>
<path d="M1090 680 c-8 -11 -20 -20 -28 -20 -18 0 -42 -25 -42 -44 0 -9 -4
-16 -10 -16 -5 0 -10 -7 -10 -15 0 -20 65 -85 85 -85 8 0 15 -4 15 -10 0 -6
40 -10 100 -10 60 0 100 4 100 10 0 6 7 10 15 10 20 0 85 65 85 85 0 8 -4 15
-10 15 -5 0 -10 9 -10 20 0 12 -7 20 -16 20 -9 0 -29 14 -44 30 -27 29 -30 30
-122 30 -82 0 -95 -2 -108 -20z"/>
</g>
</svg>
